<?xml version="1.0" encoding="UTF-8"?>
<svg id="Warstwa_2" data-name="Warstwa 2" xmlns="http://www.w3.org/2000/svg" viewBox="0 0 789.17 789.17">
  <defs>
    <style>
      .cls-1 {
        fill: #fff9e9;
      }

      .cls-2 {
        fill: #3e4940;
      }
    </style>
  </defs>
  <g id="Warstwa_1-2" data-name="Warstwa 1">
    <rect class="cls-1" width="789.17" height="789.17"/>
    <path class="cls-2" d="M223.6,732.24c2.07-10.15,27.51-11.12,36.85-11.69,11.83-.44,23.72-1.39,35.32-4.5,93.01-21.05,78.15-179.17-1.15-206.24-14.16-4.49-29.87-3.87-46.17,4.03-3.56,1.76-7.7,4.11-8.97,7.8-1.35,5.61.32,8.4-6.32,11.81-5.67,3.32-12.36,8.28-18.9,6.59-15.27-6.33-13.38-5.63-27.06,2.63-4,1.63-7.67-.35-12.07-1.68-3.53-1.27-7.52-1.2-11.01-2.37-11.81-6.87,12.26-20.75,1.03-25.78-5.94-1.93-12.32,3.28-17.69,5.43-11.64,4.84-15.26-.83-25.25-5.49-8.45-3.97-19.4,6.57-24.32,3.92-2.78-2.51-2.86-7.07-4.98-10.16-6.7-9.65-4.47-14.18,6.04-17.83,5.83-1.55,20.23-5.13,11.81-13.02-2.61-2.39-7.03-3.61-9.85-5.78-6.33-5.08,1.72-11.55,5.97-16.7,5.63-6.24,12.81-11.07,20.45-14.67,2.94-1.87,10.02-3.94,9.88-7.85-2.1-3.69-6.86-3.66-11.27-3.41-6.82.3-14.78,5.92-20.77.78-3.51-3.27-2.81-9.77-7.57-11.81-8.48-3.39-37.12,4.63-41.57-3.92-2.69-5.83,4.24-10.82,3.99-16.38-1.4-3.7-6.07-5.4-7.82-9.09-3.42-6.17,1.45-12.4,7.3-14.64,7.49-3.15,3.89-5.63,1.5-11.9-1.66-4.53.26-20.14,3.53-23.62,6.69-5.74,17.53.41,24.63-.87,6.93-1.19,5.91-12.38,13.66-12.36,4.23-.26,8.82,2.13,13.09,2.78,3.8.74,7.44.11,11.24.09,7.24-.09,14.51,4.6,21.61,2.28,11.01-4.24,1.26-9.88-4.6-12.68-5.96-3.56-11.73-5.47-18.29-6.89-4.03-1.09-9.26-3.9-8.2-8.72.98-3.87,6.95-7,9.33-10.45,4.21-6.42-2.85-12.16-8.71-15.29-5.86-3.38-12.67-2.83-18.76-5.06-11.15-4.68-2.48-16.4.38-24.11,3.25-7.68,3.01-16.94,8.17-23.69,4.79-5.51,12.64-3.37,19.06-3.99,6.67-.81,13.63-4.03,20.53-2.11,9.33.94,24.73,13.86,32.1,5.13,6.1-10.41-10.62-14.42-17.37-18.18-8.28-3.56-8.46-9.01-6.23-17.96,1.04-4.42,1.03-9.82,4.29-12.58,5.85-4.81,16.81-2.31,14.18-13.34-2.69-12.44,12.1-10.2,18.93-16.86,11.83-9.61,21.68-1.2,29.8,8.81,5.23,5.26,10.65,11.35,17.22,14.49,6.11,2.93,11.32-2.87,8.3-8.83-.9-1.96-2.54-3.89-4.15-5.48-5.7-5.21-11.26-10.95-16.13-16.55-4.98-4.96-8.18-11.56-6.4-18.66,1.76-8.58.26-22.6,12.57-22.48,4.45-.27,9.08.99,13.55.77,4.41-.18,7.93-2.52,11.5-4.6,4.88-2.97,10.15-5.28,15.78-6.47,5.46-1.45,11.45-1.13,16.72-3.17,4.23-1.66,8.1-4.31,12.12-6.44,4.75-2.53,10.41-3.6,15.67-5.12,8.52-2.17,19.81-4.63,25.72,3.76,3.99,4.44,5.92,16.35,9.91,6.87,2.77-7.58,5.85-17.87,13.85-20.85,5.97-2.57,13.04-4.52,19.41-3,4.72,1.09,9.25,3.93,14.15,3.58,7.4-1.41,14.21-3.56,22.11-3.3,11.7-1.17,28.19,1,31.06,14.7,1.5,9.8,7.05,9.08,14.94,7.5,6.05-1.12,12.16-1.43,18.21-2.56,5.66-.79,13.65-3.82,17.62,1.66,4.34,10.65,6.47,8.95,17.23,7.34,5.33-.68,14.24-2.96,13.92,3.5-.1,2.95-4.68,8.52-.85,10.37,2.22.63,7.52-1.07,11.37-1.07,6.11-.11,11.54,1.8,17.96,2.93,3.56.72,8.06,1.38,9.7,4.98,1.79,5.51-3.86,10.25-6.8,14.43-4.34,5.53-7.89,11.83-10.63,18.41-4.97,11.23-1.63,13.91,9.94,11.4,7.29-1.29,15.05-1.76,22.14-2.47,8.71-1.26,17.62.01,22.35,8.41,4.62,7.67,10.21,14.1,16.21,20.88,5.06,6.09,9.6,13.44,15.42,18.63,7.07,5.97,17.02,9.77,12.5,21.12-3.56,10.85-9.37,21.78-20.96,24.74-8.97,3.8-28.66,7.3-26.2,20.74,7.16,13.36,54.55-30.63,73.85-18.78,16.55,10.25-.61,28.75,7.92,31.45,4.24.64,8.67-1.92,12.95-2.18,5.12-.76,10.14,2.66,9.11,8.55-.22,4.76-5.31,10.46-2.13,14.86,2.29,3.1,8.5,4.26,8.65,8.79.23,3.52-1.36,7.28-.13,10.72,1.39,4.6,7.23,7.9,6.24,12.99-.93,4.41-4.64,7.78-7.61,11.06-4.48,4.65-8.77,9.77-14.03,12.31-3.9,2.72-14.82,2.47-16.51,6.09,2.52,4.59,10.74,5.98,15.76,6.78,5.53.72,12.69-1.38,16.63,3.16,4.42,5.69-4.12,12.63-2.13,18.35,3.61,5.13,12.73,4.69,15.99,10.63,2.53,4.25,1.37,8.74,1.96,13.18.37,4.39,2.46,9.48.08,13.48-4.32,8.01-20.93,3.27-20.21,14.65-.03,4.16,3.22,9.89.5,13.54-6.05,3.35-15-9.85-20.22-7.36-2.15,2.54-2.67,7.46-3.39,10.88-1.64,6.94,4.28,10.26,10.53,11.14,8.46,1.98,15.24,1.15,14.44,13.5-1.08,9.87,1.91,26.41-9.39,31.04-5.84,2.25-12.31,1.72-17.98,4.1-9.59,4.48-16.12,12.45-27.75,8.19-4.76-1.41-9.23-3.75-14.09-4.86-6.05-1.58-11.71-2.56-16.76-5.61-4.77-3.06-14.41-9.29-19.06-3.62-.84,1.62,0,4.06.54,6.9.84,3.29.77,6.91,2.45,9.9,2.33,3.72,7.99,5.64,9.73,9.4,2.14,5.19-4.61,7.25-8.29,9.64-3.17,1.87-4.05,5.02-5.32,8.53-2.82,6.94-10.69,15.85-18.07,17.66-10.46.68-21.24-1.89-31.49-3.75-8.58-2.89-17.37-4.87-26.31-5.77-14.76-1.91-14.75-16.88-26.33-19.87-4.05-.81-8.33-.32-12.38-1.39-23.32-6.25-9.52-20.2-19.53-31.62-7.81-8.46-17.48-18.35-28.73-20.4-25.15-4.13-39.17,32.53-41.37,53.83-2.55,41.09-2.22,118.17,22.4,152.05,20.77,25.71,57.4,25.05,87.31,29.95,6.26,1.33,22.34,3.11,23.63,8.82-.24,1.18-2.43,2.04-5.66,2.44-14.36,1.42-29.97-.25-44.67-.13-77.62.81-178.77-.01-258.71.27-2.91.04-8.8-.1-9.18-2.07l-.02-.06ZM436.75,410.27c-.94-1.52-2.8-2.32-5.13-2.14-5.58.25-9.67,4.79-14.16,7.61-2.04,1.24-4.26,2.2-6.52,2.96-3.35,1.13-6.21,1.75-7.65,3.53-1.56,2.01-1.45,4.48-1.49,7.1.07,3.93.2,8.34.29,12.43.27,4.26-.18,11.37.83,14.11.78.89,2.26-1.06,3-1.66,4.58-4.66,15.21-15.64,22.18-22.8,4.65-4.69,6.69-6.9,8.08-12.19.73-2.77,2.13-6.16.61-8.84l-.06-.1ZM368.16,434.69c-2.41-1.6-5.4-1.13-8.93-.9-3.49.32-7.7-.31-10.97-.44-1.13,0-1.84-.02-2.32.46-.23.28-.19.7.13,1.3.69,1.24,1.91,2.57,3.02,3.83,5.29,5.73,13.47,14.78,18.86,20.45,1.2,1.08,2.72,2.84,3.59,1.12.81-2.58.42-6.45.41-9.63-.47-4.99.39-12.88-3.67-16.12l-.11-.08ZM465.72,438.12c-1.76-3.48-9.37-5.27-13.88-5.28-4.35-.02-7.91,2.55-11.25,5.11-13.2,9.97-25.83,22.36-30.84,38.21-2.76,8.53-.34,11.59,7.82,6.39,10.27-6.22,19.27-14.4,29.08-21.28,4.61-3.35,9.89-5.98,13.9-10.09,2.99-3.44,6.81-8.53,5.24-12.94l-.05-.11ZM371.57,515.6c.76-.2,1.22-1.36,1.47-3.32.41-4.08.26-8.62.19-12.77.02-9.14-3.5-16.71-7.55-24.58-5.97-11.66-15.24-19.49-24.55-28.17-2.65-2.37-5.87-5.53-9.47-3.83-2.5,1.11-5.25,4.38-9.24,4.96-6.07,1.06-16.4-2.93-20.86,1.06-1.87,2.55,1.05,5.54,3.75,5.54,2.69.34,7.85,4.43,9.94,9.05,4.68,8.84,15.75,14.06,23.54,20.23,8.98,6.46,15.75,14.05,22.82,22.25,2.21,2.52,4.56,5.42,6.8,7.72,1.28,1.29,2.35,2.05,3.11,1.88l.06-.02ZM496.7,464.87c3.45-2.28,2.07-6.38-1.45-7.59-12.65-3.18-29.64,5.34-40.84,12.65-1.8,1.4-4.24,2.94-4.05,5.26.26,1.79,3.03,3.29,6.54,5,5.29,2.52,10.33,5.71,14.89,9.37,3.37,2.7,8.24,7.12,10.05,8.08,5,2.56-11.04-14.34-11.35-15.62-2.29-2.91-4.69-8.27-3-10.85,2.63-3.85,8.21-.55,11.98-.64,2.93.19,5.56-.93,8.68-1.99,2.83-1.06,5.97-1.89,8.45-3.59l.11-.08ZM303.21,470.83c.23-.71-.66-1.73-2.35-2.85-5.31-3.21-12.52-6.01-18.93-5.4-4.25.61-7.71,6.33-4.34,9.44,3.22,2.16,7.71.44,11.42.51,2.84-.18,5.81-.22,8.57-.29,3.06-.09,5.29-.44,5.62-1.36l.02-.06ZM288.15,495.62c-.4-2.26-3.76-4.06-5.81-5.32-8.56-4.86-16.71-8.35-26.21-9.14-8.43-.77-18.67.62-27.03,3.75-5.59,2.1-4.31,7.35.66,9.98,2.7,1.76,6.19,1.9,8.39,3.76,2.58,3.23-2.9,8.15-3.06,10.98.47,1.41,4.25-.3,5.72-.63,13.14-4.49,27.08-6.61,40.53-9.52,2.31-.65,6.52-1.2,6.81-3.78v-.08ZM307.58,485.12c-4.07-.47-11.93-1.08-14.66.6-1.64,1.35.41,3.36,1.54,4.64,5.57,5.47,11.68,10.59,18.01,15.21,4.64,3.07,11.76,9.23,12.06,2.11.1-3.39-.58-7.32-1.23-10.67-1.31-8.36-7.66-10.71-15.52-11.86l-.19-.03ZM357.88,544.84c.35-.21.44-1.02.29-2.29-3.22-16.89-11.52-32.9-23.56-44.51-1.7-1.51-4.41-4.32-6.57-3.51-2.09,1.56-.89,5.81-.4,8.25,2.7,11.82,10.23,19.16,18.12,28.12,2.52,2.9,5.03,6.07,7.29,9.11.97,1.29,1.85,2.45,2.59,3.3,1.02,1.17,1.77,1.75,2.19,1.54l.04-.02Z"/>
  </g>
</svg>