<?xml version="1.0" encoding="UTF-8"?>
<svg id="Warstwa_2" data-name="Warstwa 2" xmlns="http://www.w3.org/2000/svg" viewBox="0 0 3931.97 1006.78">
  <defs>
    <style>
      .cls-1 {
        fill: none;
      }

      .cls-2 {
        fill: #fffdf8;
      }
    </style>
  </defs>
  <g id="Warstwa_1-2" data-name="Warstwa 1">
    <rect class="cls-1" width="3931.97" height="1006.78"/>
    <path class="cls-2" d="M306.96,890.87c2.38-11.64,31.57-12.76,42.29-13.41,13.57-.51,27.22-1.59,40.53-5.17,106.73-24.16,89.68-205.61-1.32-236.67-16.25-5.15-34.28-4.44-52.99,4.63-4.08,2.02-8.83,4.72-10.3,8.95-1.55,6.44.37,9.64-7.25,13.55-6.51,3.81-14.18,9.51-21.69,7.56-17.53-7.26-15.36-6.46-31.05,3.01-4.59,1.88-8.8-.41-13.86-1.93-4.05-1.45-8.63-1.38-12.64-2.72-13.55-7.88,14.07-23.81,1.19-29.58-6.82-2.21-14.14,3.77-20.3,6.23-13.36,5.55-17.51-.95-28.98-6.3-9.69-4.55-22.27,7.54-27.9,4.5-3.2-2.88-3.28-8.12-5.71-11.66-7.69-11.07-5.13-16.27,6.93-20.46,6.69-1.78,23.21-5.88,13.55-14.95-2.99-2.74-8.07-4.14-11.31-6.63-7.26-5.83,1.97-13.25,6.85-19.16,6.46-7.16,14.71-12.7,23.47-16.83,3.38-2.15,11.5-4.52,11.34-9.01-2.41-4.24-7.88-4.2-12.93-3.91-7.82.34-16.97,6.8-23.83.89-4.03-3.75-3.23-11.21-8.68-13.55-9.73-3.89-42.6,5.32-47.71-4.5-3.08-6.7,4.87-12.41,4.57-18.8-1.61-4.25-6.96-6.2-8.97-10.44-3.92-7.08,1.66-14.22,8.38-16.8,8.59-3.61,4.46-6.46,1.72-13.66-1.91-5.19.3-23.12,4.05-27.11,7.67-6.59,20.11.48,28.26-1,7.96-1.36,6.79-14.21,15.68-14.18,4.86-.3,10.12,2.44,15.03,3.19,4.36.85,8.54.13,12.9.11,8.31-.1,16.65,5.28,24.8,2.61,12.64-4.86,1.44-11.33-5.28-14.55-6.84-4.08-13.46-6.27-20.99-7.91-4.63-1.25-10.62-4.48-9.42-10.01,1.12-4.44,7.98-8.04,10.71-11.99,4.83-7.37-3.27-13.96-10-17.55-6.72-3.88-14.54-3.25-21.52-5.81-12.8-5.37-2.85-18.82.43-27.67,3.73-8.81,3.45-19.44,9.37-27.19,5.5-6.32,14.51-3.86,21.87-4.58,7.66-.93,15.65-4.62,23.56-2.42,10.71,1.07,28.38,15.91,36.84,5.88,7-11.94-12.19-16.54-19.93-20.86-9.5-4.09-9.71-10.34-7.14-20.6,1.19-5.08,1.18-11.27,4.92-14.43,6.71-5.52,19.29-2.65,16.27-15.31-3.09-14.28,13.88-11.7,21.72-19.35,13.58-11.02,24.88-1.38,34.2,10.12,6.01,6.04,12.22,13.02,19.76,16.63,7.01,3.36,12.99-3.29,9.53-10.13-1.04-2.25-2.92-4.46-4.76-6.29-6.54-5.98-12.92-12.57-18.51-18.99-5.71-5.69-9.38-13.27-7.34-21.42,2.02-9.84.29-25.93,14.43-25.8,5.11-.31,10.42,1.13,15.55.89,5.06-.21,9.1-2.89,13.2-5.27,5.6-3.41,11.65-6.06,18.11-7.43,6.26-1.67,13.14-1.3,19.18-3.63,4.85-1.9,9.29-4.95,13.91-7.39,5.45-2.91,11.94-4.13,17.99-5.87,9.78-2.49,22.73-5.31,29.51,4.31,4.58,5.09,6.79,18.77,11.37,7.88,3.18-8.7,6.71-20.51,15.9-23.93,6.85-2.95,14.96-5.19,22.27-3.44,5.41,1.25,10.62,4.51,16.24,4.11,8.49-1.62,16.3-4.09,25.37-3.79,13.42-1.34,32.35,1.15,35.64,16.87,1.72,11.25,8.09,10.42,17.15,8.61,6.94-1.28,13.95-1.64,20.9-2.94,6.5-.91,15.66-4.39,20.22,1.9,4.98,12.23,7.43,10.27,19.77,8.43,6.12-.78,16.34-3.39,15.97,4.01-.12,3.38-5.37,9.78-.97,11.91,2.54.73,8.63-1.23,13.04-1.22,7.01-.13,13.24,2.06,20.61,3.36,4.08.82,9.25,1.59,11.13,5.72,2.05,6.33-4.42,11.76-7.8,16.56-4.98,6.35-9.05,13.58-12.2,21.12-5.71,12.88-1.87,15.96,11.41,13.09,8.36-1.48,17.27-2.02,25.4-2.83,9.99-1.45,20.22.02,25.64,9.65,5.31,8.8,11.71,16.18,18.6,23.96,5.81,6.99,11.01,15.42,17.7,21.38,8.11,6.86,19.53,11.21,14.34,24.24-4.09,12.45-10.76,24.99-24.05,28.4-10.29,4.36-32.89,8.37-30.06,23.8,8.21,15.33,62.59-35.15,84.75-21.56,18.99,11.77-.7,32.99,9.09,36.1,4.87.73,9.95-2.2,14.86-2.5,5.87-.88,11.64,3.05,10.45,9.81-.26,5.46-6.09,12.01-2.44,17.06,2.63,3.56,9.75,4.89,9.92,10.09.27,4.04-1.56,8.35-.15,12.3,1.59,5.28,8.29,9.07,7.16,14.91-1.07,5.06-5.33,8.93-8.74,12.69-5.14,5.33-10.06,11.21-16.1,14.13-4.47,3.12-17,2.83-18.95,6.99,2.9,5.27,12.32,6.86,18.09,7.78,6.35.82,14.56-1.58,19.08,3.62,5.07,6.53-4.73,14.5-2.44,21.05,4.14,5.88,14.6,5.38,18.35,12.2,2.9,4.87,1.57,10.04,2.25,15.13.42,5.04,2.82,10.88.1,15.47-4.96,9.2-24.02,3.75-23.19,16.81-.04,4.77,3.69,11.35.58,15.54-6.95,3.84-17.21-11.3-23.21-8.44-2.47,2.92-3.06,8.56-3.89,12.49-1.88,7.96,4.91,11.77,12.08,12.79,9.7,2.27,17.48,1.32,16.57,15.49-1.24,11.33,2.2,30.31-10.77,35.62-6.7,2.58-14.13,1.97-20.64,4.71-11.01,5.14-18.5,14.29-31.84,9.4-5.47-1.61-10.59-4.3-16.17-5.58-6.94-1.81-13.44-2.93-19.23-6.44-5.48-3.51-16.53-10.67-21.88-4.15-.96,1.86,0,4.66.62,7.92.96,3.77.89,7.93,2.81,11.36,2.68,4.27,9.17,6.47,11.16,10.79,2.46,5.95-5.3,8.31-9.52,11.07-3.63,2.14-4.64,5.77-6.11,9.79-3.24,7.97-12.27,18.19-20.73,20.26-12.01.78-24.38-2.17-36.14-4.3-9.85-3.31-19.94-5.58-30.19-6.62-16.94-2.19-16.93-19.37-30.21-22.8-4.65-.93-9.56-.36-14.2-1.59-26.76-7.17-10.92-23.18-22.41-36.28-8.96-9.71-20.06-21.06-32.97-23.41-28.86-4.74-44.95,37.33-47.48,61.77-2.93,47.15-2.55,135.6,25.7,174.49,23.84,29.51,65.88,28.74,100.19,34.36,7.18,1.53,25.64,3.57,27.11,10.12-.27,1.36-2.79,2.34-6.49,2.81-16.48,1.63-34.39-.29-51.26-.15-89.08.93-205.15-.01-296.88.31-3.34.05-10.1-.12-10.53-2.38l-.02-.07ZM551.56,521.4c-1.08-1.74-3.21-2.66-5.88-2.46-6.41.28-11.09,5.5-16.25,8.73-2.34,1.43-4.88,2.53-7.48,3.39-3.84,1.3-7.13,2.01-8.78,4.05-1.79,2.3-1.67,5.14-1.7,8.14.08,4.51.23,9.57.33,14.26.31,4.89-.21,13.05.95,16.19.9,1.02,2.6-1.22,3.45-1.91,5.26-5.34,17.45-17.95,25.46-26.17,5.33-5.39,7.68-7.92,9.28-13.98.83-3.18,2.44-7.07.7-10.14l-.07-.11ZM472.85,549.41c-2.77-1.83-6.2-1.3-10.25-1.03-4,.37-8.83-.36-12.59-.51-1.3,0-2.11-.02-2.67.53-.26.32-.21.81.14,1.49.79,1.43,2.19,2.95,3.47,4.4,6.08,6.57,15.45,16.96,21.65,23.47,1.38,1.24,3.13,3.25,4.12,1.28.93-2.96.49-7.4.47-11.05-.54-5.73.45-14.78-4.22-18.49l-.12-.09ZM584.8,553.35c-2.02-3.99-10.75-6.05-15.93-6.06-4.99-.03-9.07,2.93-12.91,5.86-15.15,11.44-29.64,25.65-35.39,43.85-3.17,9.79-.39,13.3,8.97,7.33,11.79-7.14,22.12-16.53,33.37-24.42,5.29-3.85,11.35-6.87,15.95-11.58,3.43-3.95,7.82-9.79,6.01-14.85l-.06-.13ZM476.76,642.26c.87-.23,1.41-1.56,1.68-3.81.47-4.68.29-9.89.22-14.65.03-10.49-4.01-19.18-8.67-28.21-6.85-13.38-17.49-22.37-28.18-32.32-3.04-2.71-6.74-6.34-10.87-4.4-2.87,1.27-6.02,5.02-10.6,5.69-6.96,1.22-18.82-3.37-23.94,1.22-2.15,2.93,1.2,6.35,4.31,6.36,3.09.39,9,5.09,11.41,10.38,5.37,10.15,18.08,16.13,27.01,23.21,10.31,7.41,18.08,16.12,26.18,25.53,2.53,2.89,5.24,6.22,7.8,8.86,1.47,1.48,2.69,2.35,3.57,2.16l.07-.02ZM620.34,584.05c3.96-2.61,2.37-7.32-1.66-8.71-14.51-3.65-34.01,6.13-46.87,14.51-2.06,1.6-4.87,3.37-4.65,6.04.3,2.05,3.48,3.78,7.51,5.74,6.07,2.89,11.86,6.55,17.08,10.75,3.87,3.1,9.46,8.17,11.54,9.27,5.73,2.94-12.67-16.46-13.03-17.93-2.62-3.34-5.38-9.49-3.45-12.46,3.02-4.42,9.42-.64,13.74-.73,3.36.21,6.38-1.07,9.96-2.28,3.24-1.21,6.85-2.17,9.7-4.11l.12-.09ZM398.31,590.89c.27-.82-.76-1.99-2.7-3.27-6.1-3.68-14.37-6.9-21.73-6.19-4.88.7-8.84,7.27-4.98,10.84,3.69,2.48,8.85.5,13.11.59,3.26-.21,6.66-.26,9.83-.34,3.52-.1,6.07-.51,6.45-1.56l.02-.07ZM381.03,619.34c-.46-2.6-4.31-4.65-6.67-6.1-9.83-5.57-19.17-9.58-30.08-10.48-9.68-.89-21.42.71-31.01,4.31-6.41,2.41-4.94,8.43.76,11.45,3.09,2.02,7.1,2.18,9.63,4.31,2.97,3.71-3.33,9.35-3.51,12.6.53,1.62,4.87-.34,6.56-.72,15.08-5.16,31.08-7.58,46.51-10.92,2.65-.75,7.48-1.37,7.81-4.34v-.09ZM403.33,607.29c-4.67-.54-13.69-1.24-16.82.68-1.88,1.54.47,3.86,1.77,5.32,6.39,6.27,13.4,12.15,20.66,17.45,5.33,3.52,13.49,10.59,13.84,2.43.12-3.89-.67-8.4-1.41-12.24-1.5-9.59-8.79-12.3-17.81-13.61l-.22-.03ZM461.05,675.82c.4-.24.51-1.17.34-2.63-3.7-19.38-13.22-37.75-27.04-51.07-1.95-1.73-5.06-4.95-7.54-4.02-2.4,1.79-1.03,6.66-.45,9.47,3.1,13.56,11.74,21.98,20.8,32.27,2.89,3.33,5.77,6.97,8.37,10.46,1.11,1.48,2.13,2.81,2.97,3.79,1.17,1.35,2.03,2,2.51,1.77l.04-.02Z"/>
    <g>
      <path class="cls-2" d="M1109.09,349.93l.71-12.48v-114.71l-.71-10.04c13.69-.41,26.27-.71,32.96-.71,34.38,0,50.51,7.61,50.51,35.6,0,19.47-14.5,33.88-33.77,36.61,3.35,2.74,6.9,7.81,10.04,12.58l27.18,40.67,9.33,12.48h-18.16l-7.1-12.48-35.3-52.74-19.78-.1v52.84l.71,12.48h-16.63ZM1125.02,279.04h18.56c21,0,32.46-10.65,32.46-30.12,0-26.07-9.74-31.24-33.57-31.24-4.36,0-11.77.41-17.45.71v60.65Z"/>
      <path class="cls-2" d="M1213.56,296.89c0-36.11,17.95-55.89,47.37-55.89,27.08,0,38.54,16.63,38.54,41.28,0,5.38-.3,7.51-.51,9.23l-.41.41-68.56.1c.1,39.45,10.55,53.76,33.17,53.76,11.16,0,20.49-3.65,29.31-9.13l2.84,5.07c-9.43,6.09-20.39,10.14-34.28,10.14-31.64,0-47.47-21.2-47.47-54.97ZM1283.85,286.54v-7.2c0-22.92-7.81-33.17-23.73-33.17-18.86,0-27.99,14.81-30.12,41.28l53.86-.91Z"/>
      <path class="cls-2" d="M1317.52,349.93v-5.48l61.16-95.85h-47.26l-11.56.61v-6.29h74.95v5.78l-60.55,95.54h50l13.19-.61-1.01,6.29h-78.91Z"/>
      <path class="cls-2" d="M1406.46,397.1l3.85-10.45c2.74,1.32,8.32,3.04,14,3.04,12.17,0,17.04-13.19,25.15-33.57l6.29-15.92h-6.08l-37.22-87.23-5.27-10.04h17.34l3.65,10.14,31.04,76.58h1.32l33.06-76.47,2.33-10.24h9.63l-4.56,10.14-44.42,104.37c-9.94,23.53-16.63,42.7-34.99,42.7-6.59,0-12.88-1.93-15.11-3.04Z"/>
      <path class="cls-2" d="M1514.78,299.83c0-36.41,19.78-58.83,54.26-58.83,6.9,0,12.88.81,19.07,2.84v-41.79l-.61-10.14,15.01-.91.1,146.36.71,12.37h-15.11l1.83-16.33h-.51c-6.09,7.81-18.87,18.46-36.62,18.46-24.85,0-38.14-21.4-38.14-52.03ZM1588.11,328.94v-78.5c-5.58-2.03-10.85-3.45-20.49-3.45-19.78,0-37.12,13.59-37.12,53.76,0,27.08,8.82,42.19,27.59,42.19,10.85,0,22.72-5.98,30.02-14Z"/>
      <path class="cls-2" d="M1630.6,296.89c0-36.11,17.95-55.89,47.37-55.89,27.08,0,38.54,16.63,38.54,41.28,0,5.38-.3,7.51-.51,9.23l-.41.41-68.56.1c.1,39.45,10.55,53.76,33.17,53.76,11.16,0,20.49-3.65,29.31-9.13l2.84,5.07c-9.43,6.09-20.39,10.14-34.28,10.14-31.64,0-47.47-21.2-47.47-54.97ZM1700.89,286.54v-7.2c0-22.92-7.81-33.17-23.73-33.17-18.86,0-27.99,14.81-30.12,41.28l53.86-.91Z"/>
      <path class="cls-2" d="M1745.31,349.93l.61-12.37v-84.49l-.71-9.84,15.52-.81-1.72,18.05h.51c7.4-8.72,23.23-19.47,40.17-19.47,18.15,0,28.6,11.26,28.6,32.46v64.1l.71,12.37h-16.23l.71-12.37v-58.73c0-12.37-1.12-27.89-22.72-27.89-13.69,0-22.01,6.19-29.92,14.2v72.42l.61,12.37h-16.13Z"/>
      <path class="cls-2" d="M1854.54,297.7c0-31.44,19.98-56.7,53.04-56.7,10.04,0,16.84,2.03,24.04,5.78l-4.16,6.29c-2.74-2.03-5.78-3.96-9.03-4.97-3.45-1.22-7.5-1.62-11.66-1.62-21.5,0-35.4,19.88-35.3,50.41,0,25.46,8.52,49.09,34.79,49.09,8.72,0,15.32-2.84,22.72-7.3l2.74,5.38c-7.81,4.97-16.03,7.81-27.38,7.81-33.47,0-49.8-26.07-49.8-54.16Z"/>
      <path class="cls-2" d="M1922.99,397.1l2.43-4.67c4.77,1.72,7.91,2.33,12.58,2.33,15.52,0,21-7.2,21-37.93v-103.76l-.71-9.84,14.91-.91v112.08c0,30.63-7.1,45.54-34.08,45.54-7,0-11.87-1.62-16.13-2.84ZM1955.15,214.03c0-5.68,4.56-10.24,10.04-10.24s10.24,4.56,10.24,10.24-4.67,10.04-10.24,10.04-10.04-4.56-10.04-10.04Z"/>
      <path class="cls-2" d="M2003.12,323.06c0-30.33,26.47-37.02,65.62-37.02v-8.11c0-15.72-.3-30.73-26.07-30.73-6.39,0-12.48,1.12-17.75,2.64-4.77,1.62-7.81,3.14-11.87,5.68l-2.84-6.49c8.52-4.16,21.71-8.01,36.82-8.01,33.06,0,37.22,17.55,37.22,37.83v58.73l.61,12.07-15.62.91,1.22-17.44-.51-.1c-7.61,8.93-22.92,18.87-38.95,18.87-16.94,0-27.89-11.46-27.89-28.8ZM2068.74,328.74v-38.64c-39.45,0-51.83,8.93-51.83,31.85,0,14.2,7.3,20.79,20.59,20.79,9.84,0,20.79-2.94,31.24-14Z"/>
      <path class="cls-2" d="M2154.33,343.65l3.45-7.3c3.75,2.23,7.81,4.36,12.37,6.09,6.19,2.03,13.08,3.35,21.91,3.35,18.05,0,29.72-8.32,29.62-29.82-.1-17.75-10.04-21.91-32.15-33.06-20.59-10.35-31.95-18.36-32.05-37.43-.1-24.65,22.72-34.69,47.77-34.69,12.88,0,21.2,2.33,29.92,5.58l-3.55,7.4c-3.75-2.03-7.71-3.65-12.17-4.87-4.67-1.32-10.04-2.03-16.43-2.03-16.63,0-29.11,7.1-29.01,26.37.1,15.42,7.2,20.29,26.57,29.72,22.62,10.65,37.53,19.47,37.63,40.27.2,24.44-18.66,38.64-48.18,38.64-15.92,0-30.02-5.17-35.7-8.22Z"/>
      <path class="cls-2" d="M2255.55,296.89c0-36.11,17.95-55.89,47.37-55.89,27.08,0,38.54,16.63,38.54,41.28,0,5.38-.3,7.51-.51,9.23l-.41.41-68.56.1c.1,39.45,10.55,53.76,33.17,53.76,11.16,0,20.49-3.65,29.31-9.13l2.84,5.07c-9.43,6.09-20.39,10.14-34.28,10.14-31.64,0-47.47-21.2-47.47-54.97ZM2325.84,286.54v-7.2c0-22.92-7.81-33.17-23.73-33.17-18.86,0-27.99,14.81-30.12,41.28l53.86-.91Z"/>
      <path class="cls-2" d="M2370.26,349.93l.61-12.37v-84.49l-.71-9.84,15.52-.81-1.72,18.05h.51c7.4-8.72,23.23-19.47,40.17-19.47,18.15,0,28.6,11.26,28.6,32.46v64.1l.71,12.37h-16.23l.71-12.37v-58.73c0-12.37-1.12-27.89-22.72-27.89-13.69,0-22.01,6.19-29.92,14.2v72.42l.61,12.37h-16.13Z"/>
      <path class="cls-2" d="M2486.49,214.03c0-5.68,4.56-10.24,10.04-10.24s10.24,4.56,10.24,10.24-4.67,10.04-10.24,10.04-10.04-4.56-10.04-10.04ZM2489.43,349.93l.71-12.37v-84.18l-.71-10.14,15.32-.81v95.14l.61,12.37h-15.92Z"/>
      <path class="cls-2" d="M2532.73,298.01c0-28.91,17.75-57,50.71-57s49.29,26.78,49.39,54.26c0,28.3-17.75,56.6-51.22,56.6-30.83,0-48.89-25.05-48.89-53.86ZM2616.61,296.59c0-28.7-11.46-50.1-34.18-50.1-20.59,0-33.47,20.59-33.47,49.6s11.26,49.6,33.88,49.6,33.67-22.31,33.77-49.09Z"/>
      <path class="cls-2" d="M2660.62,349.93l.61-12.37v-84.49l-.71-9.84,15.52-.81-1.72,19.17h.51c8.62-10.85,22.42-20.49,40.77-20.49l-1.52,12.48c-1.93-.3-3.75-.41-5.48-.3-16.02.51-25.25,6.09-32.46,13.39v70.9l.61,12.37h-16.13Z"/>
      <path class="cls-2" d="M2726.65,323.06c0-30.33,26.47-37.02,65.62-37.02v-8.11c0-15.72-.3-30.73-26.07-30.73-6.39,0-12.48,1.12-17.75,2.64-4.77,1.62-7.81,3.14-11.87,5.68l-2.84-6.49c8.52-4.16,21.71-8.01,36.82-8.01,33.06,0,37.22,17.55,37.22,37.83v58.73l.61,12.07-15.62.91,1.22-17.44-.51-.1c-7.61,8.93-22.92,18.87-38.95,18.87-16.94,0-27.89-11.46-27.89-28.8ZM2792.27,328.74v-38.64c-39.45,0-51.83,8.93-51.83,31.85,0,14.2,7.3,20.79,20.59,20.79,9.84,0,20.79-2.94,31.24-14Z"/>
    </g>
    <g>
      <path class="cls-2" d="M1106.9,716.75l3.22-23.27,14.95-213.26-.76-21.19h63.58l-3.22,21.19-15.71,222.72h58.66l23.84-1.89-1.14,15.71h-143.43Z"/>
      <path class="cls-2" d="M1291.02,625.92c0-63.96,35.01-114.86,105.97-114.86,49.96,0,76.07,18.54,76.07,46.55,0,43.71-41.82,61.12-118.46,63.2,0,42.76,12.3,77.2,52.98,77.2,17.03,0,31.03-5.11,43.9-13.25l3.22,8.89c-16.08,12.87-42.2,27.63-78.34,27.63-63.39,0-85.34-44.47-85.34-95.37ZM1415.53,550.99c-.38-18.54-6.62-28.57-18.92-28.57-22.52,0-38.41,34.25-41.82,89.88,52.42-7.19,60.93-39.74,60.74-61.31Z"/>
      <path class="cls-2" d="M1504.27,706.72l7.38-17.41c7,5.87,13.81,10.98,22.52,14.57,8.52,3.41,18.54,5.3,30.28,5.3,22.71,0,35.38-8.52,35.38-37.28,0-19.68-11.73-24.6-35.38-37.09-15.52-8.33-45.6-24.03-45.6-60.74,0-44.85,35.57-63.01,79.66-63.01,25.36,0,43.52,6.43,53.93,11.35l-8.7,17.98c-7.19-7-13.06-11.35-20.44-13.44-7.38-2.27-16.08-3.97-24.41-3.97-19.68,0-30.46,13.81-30.46,36.14,0,14.76,7.57,21.19,26.11,30.84,23.08,11.92,56.01,28.38,56.01,65.09,0,42.58-36.33,66.23-84.77,66.23-31.6,0-53.93-10.22-61.5-14.57ZM1592.26,497.25l-16.65-5.11,31.22-64.9,47.31.38-61.88,69.63Z"/>
      <path class="cls-2" d="M1828.98,719.4l-3.03-36.33c7.38-101.42,7.76-106.91,7.76-112.59,0-9.84-1.7-18.17-8.14-18.17-11.54,0-24.03,7.19-48.82,27.06l-9.27,136.62-56.77,2.27-3.78-4.16,12.3-177.87-.38-19.49,59.04-3.22-6.62,59.23h2.08c15.33-28.57,41.44-61.69,82.31-61.69,26.87,0,38.6,20.06,38.6,50.33,0,4.92-.76,25.73-8.14,121.67l2.84,33.3-59.98,3.03Z"/>
      <path class="cls-2" d="M1918.86,801.14l11.54-26.11c10.6,5.68,21.76,10.97,36.9,10.97,27.63,0,33.87-17.79,47.68-50.14l11.92-28.19h-31.79l-51.28-172-8.51-20.25h73.04l2.08,20.63,30.09,134.54h3.03l58.85-134.54,5.3-20.63h22.52l-10.97,20.81-89.12,202.66c-17.79,40.68-30.09,72.85-68.12,72.85-20.82,0-36.33-7-43.14-10.6Z"/>
      <path class="cls-2" d="M2257.57,716.75l.76-8.7,121.67-235.02h-78.91l-21.76,1.89,2.46-15.9h167.08l-.57,7.57-123,235.96h84.39l23.27-1.89-2.65,16.08h-172.76Z"/>
      <path class="cls-2" d="M2483.5,634.62c0-76.07,35.38-123.37,115.24-123.37,39.17,0,63.58,5.68,78.34,9.65l-11.92,174.65.76,20.81-59.23,2.65,7.76-59.42h-2.08c-17.79,34.82-48.25,61.88-77.2,61.88-33.87,0-51.66-32.55-51.66-86.85ZM2609.34,652.79l8.7-125.64c-7.38-1.89-14.57-2.84-23.08-2.84-40.3,0-49.77,71.34-49.77,117.89,0,26.68,3.41,38.22,15.9,38.22,9.84,0,21.95-8.33,48.25-27.63Z"/>
      <path class="cls-2" d="M2866.5,623.08h10.6l41.25,92.34-61.12,2.65-3.59-4.35-41.44-96.13c29.71-13.25,52.79-28.57,52.79-52.6,0-10.41-3.78-16.46-11.16-16.46-11.73,0-26.87,11.92-51.66,31.22l-8.89,136.24-56.58,2.08-3.97-3.78,18.54-273.05-.38-20.25,61.88-3.6-7.95,113.35-7.76,41.82h2.27c27.44-48.44,52.6-61.88,79.47-61.88,33.68,0,47.31,23.46,47.31,47.12,0,26.68-20.06,51.09-59.61,65.28Z"/>
      <path class="cls-2" d="M3107.38,718.26c-21.19,14.76-30.84,25.55-30.84,38.41,0,10.22,5.68,14,14.38,14,9.84,0,21.76-5.87,32.74-19.49l10.03,9.46c-14.57,21.19-34.06,37.28-54.31,37.28s-31.03-13.25-31.03-29.71c0-19.11,14.95-36.14,40.68-53.17l7.19-55.44h-2.08c-17.79,34.82-48.25,61.88-77.2,61.88-33.87,0-51.66-32.55-51.66-86.85,0-76.07,35.38-123.37,115.24-123.37,39.17,0,63.58,5.68,78.34,9.65l-11.92,174.65.76,20.81-40.3,1.89ZM3099.81,527.15c-7.38-1.89-14.57-2.84-23.08-2.84-40.3,0-49.77,71.34-49.77,117.89,0,26.68,3.41,38.22,15.9,38.22,9.84,0,21.95-8.33,48.25-27.63l8.7-125.64Z"/>
      <path class="cls-2" d="M3232.27,661.87c0-8.7.38-13.25,8.89-133.02h-32.93l.76-13.43h32.93l4.73-65.28,60.74-3.22-4.92,68.5h51.28l-2.65,13.43h-49.39q-10.22,144.57-10.22,151.38c0,17.03,3.41,28.57,18.54,28.57,12.11,0,18.92-2.84,32.55-10.03l3.97,8.51c-14.19,7.57-28.95,13.81-52.6,13.81-52.79,0-61.69-28-61.69-59.23Z"/>
      <path class="cls-2" d="M3380.24,625.92c0-63.96,35.01-114.86,105.97-114.86,49.96,0,76.07,18.54,76.07,46.55,0,43.71-41.82,61.12-118.46,63.2,0,42.76,12.3,77.2,52.98,77.2,17.03,0,31.03-5.11,43.9-13.25l3.22,8.89c-16.08,12.87-42.2,27.63-78.34,27.63-63.39,0-85.34-44.47-85.34-95.37ZM3504.75,550.99c-.38-18.54-6.62-28.57-18.92-28.57-22.52,0-38.41,34.25-41.82,89.88,52.42-7.19,60.93-39.74,60.74-61.31Z"/>
      <path class="cls-2" d="M3741.66,623.08h10.6l41.25,92.34-61.12,2.65-3.59-4.35-41.44-96.13c29.71-13.25,52.79-28.57,52.79-52.6,0-10.41-3.78-16.46-11.16-16.46-11.73,0-26.87,11.92-51.66,31.22l-8.89,136.24-56.58,2.08-3.97-3.78,18.54-273.05-.38-20.25,61.88-3.6-7.95,113.35-7.76,41.82h2.27c27.44-48.44,52.6-61.88,79.47-61.88,33.68,0,47.31,23.46,47.31,47.12,0,26.68-20.06,51.09-59.61,65.28Z"/>
    </g>
  </g>
</svg>